<?xml version="1.0" encoding="utf-8"?>
<!-- Generator: Adobe Illustrator 16.0.0, SVG Export Plug-In . SVG Version: 6.00 Build 0)  -->
<!DOCTYPE svg PUBLIC "-//W3C//DTD SVG 1.1//EN" "http://www.w3.org/Graphics/SVG/1.1/DTD/svg11.dtd">
<svg version="1.1" id="Layer_1" xmlns="http://www.w3.org/2000/svg" xmlns:xlink="http://www.w3.org/1999/xlink" x="0px" y="0px"
	 width="221px" height="192px" viewBox="0 0 221 192" enable-background="new 0 0 221 192" xml:space="preserve">
<g>
	<path fill-rule="evenodd" clip-rule="evenodd" fill="#66B35E" d="M148.488,65.26c2.703,12.298,4.182,24.726,3.977,37.332
		c-0.077,2.121-0.152,4.243-0.228,6.365c-0.675,6.14-1.505,12.255-3.438,19.063c12.308-9.501,22.188-19.985,30.962-31.548
		c0.192-0.252-0.465-1.148-0.726-1.745c0.428-0.57,0.854-1.142,1.282-1.713c5.187-5.607,7.714-12.495,9.838-19.677
		c3.494-11.812,1.349-22.247-6.857-31.436c-0.738-0.826-1.44-1.687-2.57-3.014c5.173,0.441,8.785,2.827,12.035,5.58
		c9.251,7.835,19.4,15.196,21.68,28.24c2.254,12.896-0.836,24.368-9.055,34.947c-7.855,10.112-17.151,18.423-27.406,25.792
		c-17.77,12.771-37.852,20.479-58.714,26.491c-19.015,5.479-38.153,10.188-58.023,11.157c-1.156,0.057-2.32,0.016-3.476-0.05
		c-0.213-0.012-0.408-0.359-1.481-1.377c9.91-1.388,18.923-3.596,27.895-7.382c-5.7-6.748-8.942-14.913-17.819-19.392
		c-5.753-2.901-9.991-9.45-13.495-15.769c4.366,3.201,8.662,6.589,13.41,9.263c0.589,0.332,0.48,1.838,1.699,1.056
		c0.774-0.496,1.17-1.245,0.723-2.122c-4.55-8.904-5.042-18.763-6.699-28.347c-0.908-2.327,2.011-4.749-0.175-7.044
		c0.639-0.941,1.209-1.83,1.267-3.097c0.407-8.953,1.496-17.836,2.964-26.674c2.619-4.244,6.718-6.766,10.814-9.29
		c-0.224,1.598-0.448,3.196-0.672,4.794c-0.246,2.426-1.487,4.711-1.021,7.237c-1.212,9.982-2.335,19.971-2.178,30.052
		c-0.012,2.938-0.83,5.875,0.002,8.813c-1.705,4.115,0.622,7.882,1.177,11.758c2.759,19.244,4.766,21.219,24.248,23.11
		c13.187,1.279,25.935,0.071,36.759-8.867c1.277-1.056,2.94-1.803,3.266-3.56c1.328-7.164,3.752-14.159,3.426-21.587
		c0-2.448,0-4.897,0-7.347c0.262-11.502-0.079-22.968-2.046-34.336c-0.519-2.08-0.608-4.291-1.872-6.145
		c-2.65-10.463-6.348-20.504-12.004-29.755c0.284-2.104,1.965-1.696,3.332-1.852c7.131,8.537,13.879,17.313,17.566,28.011
		C147.398,62.554,147.943,63.906,148.488,65.26z M100.29,156.274c-0.066-0.408-0.131-0.815-0.197-1.224
		c-6.013,0.542-11.525-1.861-17.559-3.053c0.697,2.88,2.015,4.943,3.346,7.006c0.863,1.339,1.828,2.383,3.617,1.656
		C93.095,159.2,96.692,157.736,100.29,156.274z"/>
	<path fill-rule="evenodd" clip-rule="evenodd" fill="#D94E30" d="M61.827,99.934c2.186,2.295-0.732,4.717,0.175,7.044
		c-6.396-3.06-12.701-6.28-18.568-10.301c-1.222-0.838-2.349-2.517-4.034-0.215c-9.23,12.609-14.638,26.153-10.269,42.012
		c1.649,5.986,5.759,10.604,10.042,15.428c-17.198-3.713-32.342-21.268-34.345-38.938C2.814,97.201,11.304,84.088,23.673,73.12
		c25.041-22.207,55.091-34.373,87.214-42.083c14.51-3.482,29.271-5.579,43.977-7.974c1.93-0.313,3.915-0.635,6.403,0.438
		c-10.958,3.319-21.847,5.303-31.979,9.688c-1.368,0.156-3.049-0.251-3.333,1.854c-0.742-0.311-1.406-0.687-2.317-0.343
		c-16.903,6.381-32.744,14.651-46.767,26.174c-4.096,2.524-8.195,5.046-10.814,9.29c-0.472,0.078-1.08-0.004-1.395,0.261
		c-6.836,5.765-12.917,12.297-19.083,18.749c-2.132,2.232-0.09,2.707,1.262,3.388C51.815,95.062,56.829,97.482,61.827,99.934z"/>
	<path fill-rule="evenodd" clip-rule="evenodd" fill="#D94E30" d="M64.27,174.097c45.201,0.256,86.773-11.786,125.448-37.204
		C170.082,179.756,111.511,202.153,64.27,174.097z"/>
	<path fill-rule="evenodd" clip-rule="evenodd" fill="#66B35E" d="M29.388,55.902c23.585-48.625,82.87-62.059,122.411-37.835
		C107.274,18.718,66.527,31.389,29.388,55.902z"/>
	<path fill-rule="evenodd" clip-rule="evenodd" fill="#D94E30" d="M180.318,93.015c-0.428,0.571-0.854,1.143-1.282,1.713
		c-1.206,0.476-2.598,0.709-3.587,1.467c-7.098,5.436-15.041,9.3-23.212,12.763c0.075-2.122,0.15-4.244,0.228-6.365
		c8.248-2.529,16.338-5.451,24.079-9.308C177.613,92.752,178.926,90.863,180.318,93.015z"/>
	<path fill-rule="evenodd" clip-rule="evenodd" fill="#D94E30" d="M148.488,65.26c-0.545-1.354-1.09-2.706-1.635-4.06
		c3.654-1.646,7.309-3.294,10.964-4.94C155.719,60.526,152.249,63.054,148.488,65.26z"/>
	<path fill-rule="evenodd" clip-rule="evenodd" fill="#D94E30" d="M141.877,112.623c-22.189,5.981-44.331,6.288-66.42-0.528
		c-0.778-0.24-1.635-0.224-2.456-0.326c-0.832-2.938-0.014-5.875-0.002-8.813c15.154,3.99,30.537,5.735,46.22,5.067
		c7.641-0.325,15.15-1.468,22.658-2.747C141.877,107.726,141.877,110.175,141.877,112.623z"/>
	<path fill-rule="evenodd" clip-rule="evenodd" fill="#D94E30" d="M76.199,65.667c20.674,5.91,41.258,5.498,61.76-0.871
		c1.264,1.854,1.354,4.064,1.872,6.145c-11.984,5.241-24.411,8.427-37.594,7.841c-9.341-0.415-18.304-2.703-27.06-5.876
		C74.712,70.378,75.953,68.093,76.199,65.667z"/>
</g>
</svg>
